<svg xmlns="http://www.w3.org/2000/svg" viewBox="0 0 21 21">
<symbol id="floppy">
  <path fill="currentColor" d="M0 0h1.61538v1.61538H0z"/>
  <path fill="currentColor" d="M0 1.61536h1.61538v1.61538H0zm0 1.61541h1.61538v1.61538H0z"/>
  <path fill="currentColor" d="M0 4.84613h1.61538v1.61538H0zm0 1.61542h1.61538v1.61538H0z"/>
  <path fill="currentColor" d="M0 8.0769h1.61538v1.61538H0zm0 1.61542h1.61538v1.61538H0zm0 1.61538h1.61538v1.61538H0zm0 1.6154h1.61538v1.61538H0zm0 1.6154h1.61538v1.61538H0zm0 1.6154h1.61538v1.61538H0z"/>
  <path fill="currentColor" d="M0 17.7692h1.61538v1.61538H0zm0 1.6154h1.61538v1.61538H0zM17.7692 0v1.61538h-1.61538V0z"/>
  <path fill="currentColor" d="M16.1539 0v1.61538h-1.61538V0zm-1.6154 0v1.61538h-1.61538V0zm-1.6154 0v1.61538h-1.61538V0zm-1.6154 0v1.61538H9.69232V0zM9.69232 0v1.61538H8.07694V0zM8.0769 0v1.61538H6.46152V0z"/>
  <path fill="currentColor" d="M6.46155 0v1.61538H4.84617V0zM4.84613 0v1.61538H3.23075V0z"/>
  <path fill="currentColor" d="M3.23077 0v1.61538H1.61539V0zM19.3846 1.61536v1.61538h-1.61538V1.61536zM4.84613 3.23077v1.61538H3.23075V3.23077z"/>
  <path fill="currentColor" d="M4.84613 1.61536v1.61538H3.23075V1.61536zm0 3.23077v1.61538H3.23075V4.84613zM16.1539 3.23077v1.61538h-1.61538V3.23077zm0-1.61541v1.61538h-1.61538V1.61536z"/>
  <path fill="currentColor" d="M16.1539 4.84613v1.61538h-1.61538V4.84613zm-3.2308-1.61536v1.61538h-1.61538V3.23077zm0-1.61541v1.61538h-1.61538V1.61536z"/>
  <path fill="currentColor" d="M12.9231 4.84613v1.61538h-1.61538V4.84613zm3.2308 1.61542v1.61538h-1.61538V6.46155zm-1.6154 0v1.61538h-1.61538V6.46155zm-1.6154 0v1.61538h-1.61538V6.46155zm-1.6154 0v1.61538H9.69232V6.46155zm-1.61538 0v1.61538H8.07694V6.46155zm-1.61542 0v1.61538H6.46152V6.46155z"/>
  <path fill="currentColor" d="M6.46155 6.46155v1.61538H4.84617V6.46155zm-1.61542 0v1.61538H3.23075V6.46155zM17.7692 11.3077v1.61538h-1.61538V11.3077z"/>
  <path fill="currentColor" d="M16.1539 11.3077v1.61538h-1.61538V11.3077zm-1.6154 0v1.61538h-1.61538V11.3077zm-1.6154 0v1.61538h-1.61538V11.3077zm-1.6154 0v1.61538H9.69232V11.3077zm-1.61538 0v1.61538H8.07694V11.3077zm-1.61542 0v1.61538H6.46152V11.3077z"/>
  <path fill="currentColor" d="M6.46155 11.3077v1.61538H4.84617V11.3077zm-1.61542 0v1.61538H3.23075V11.3077zm12.92307 1.6154v1.61538h-1.61538V12.9231zm-12.92307 0v1.61538H3.23075V12.9231zm12.92307 1.6154v1.61538h-1.61538V14.5385zm-12.92307 0v1.61538H3.23075V14.5385zm12.92307 1.6154v1.61538h-1.61538V16.1539zm-12.92307 0v1.61538H3.23075V16.1539z"/>
  <path fill="currentColor" d="M4.84613 17.7692v1.61538H3.23075V17.7692zm12.92307 0v1.61538h-1.61538V17.7692zm1.6154 1.6154v1.61538h-1.61538V19.3846zm-1.6154 0v1.61538h-1.61538V19.3846z"/>
  <path fill="currentColor" d="M16.1539 19.3846v1.61538h-1.61538V19.3846zm-1.6154 0v1.61538h-1.61538V19.3846zm-1.6154 0v1.61538h-1.61538V19.3846zm-1.6154 0v1.61538H9.69232V19.3846zm-1.61538 0v1.61538H8.07694V19.3846zm-1.61542 0v1.61538H6.46152V19.3846z"/>
  <path fill="currentColor" d="M6.46155 19.3846v1.61538H4.84617V19.3846zm-1.61542 0v1.61538H3.23075V19.3846z"/>
  <path fill="currentColor" d="M3.23077 19.3846v1.61538H1.61539V19.3846zM21 21h-1.61538v-1.61538H21zm0-1.6154h-1.61538v-1.61538H21zm0-1.6154h-1.61538v-1.61538H21z"/>
  <path fill="currentColor" d="M21 16.1539h-1.61538v-1.61538H21zm0-1.6154h-1.61538v-1.61538H21zm0-1.6154h-1.61538v-1.61538H21zm0-1.6154h-1.61538V9.69232H21zm0-1.61538h-1.61538V8.07694H21zm0-1.61542h-1.61538V6.46152H21z"/>
  <path fill="currentColor" d="M21 6.46155h-1.61538V4.84617H21zm0-1.61542h-1.61538V3.23075H21z"/>
</symbol>
</svg>
