<svg width="84" height="17" viewBox="0 0 84 17" fill="none" xmlns="http://www.w3.org/2000/svg">
<path opacity="0.6" d="M0 12.25V8.75H1.75V7H3.5V5.25H1.75V3.5H0V0H3.5V3.5H5.25V5.25H7V3.5H8.75V0H12.25V3.5H10.5V5.25H8.75V7H10.5V8.75H12.25V12.25H8.75V8.75H7V7H5.25V8.75H3.5V12.25H0ZM15.75 12.25V10.5H14V1.75H15.75V0H24.5V1.75H26.25V10.5H24.5V12.25H15.75ZM17.5 10.5H22.75V1.75H17.5V10.5ZM28 12.25V0H38.5V1.75H40.25V7H38.5V8.75H31.5V12.25H28ZM31.5 7H36.75V1.75H31.5V7ZM43.75 12.25V10.5H42V1.75H43.75V0H52.5V1.75H54.25V10.5H52.5V12.25H43.75ZM45.5 10.5H50.75V1.75H45.5V10.5ZM56 12.25V0H59.5V10.5H61.25V0H63V10.5H64.75V0H68.25V12.25H56ZM71.75 12.25V10.5H70V1.75H71.75V0H80.5V1.75H82.25V10.5H80.5V12.25H71.75ZM73.5 10.5H78.75V1.75H73.5V10.5Z" fill="black"/>
<line opacity="0.6" y1="16" x2="83" y2="16" stroke="black" stroke-width="2"/>
</svg>
